# xmcd
#
# Track frame offsets:
#	150
#	25544
#	79365
#	119182
#	172213
#	201420
#
# Disc length: 3895 seconds
#
# Revision: 1
# Processed by: cddbd v1.5.2PL0 Copyright (c) Steve Scherf et al.
# Submitted via: audiograbber 1.83.01
#
DISCID=560f3506
DTITLE=Frank Bang and Secret Stash - Homegrown
DYEAR=2006
DGENRE=Blues
TTITLE0=Blind Crippled and Crazy
TTITLE1=Cry Out Your Name
TTITLE2=Sweetest Things
TTITLE3=Man Of Many Words
TTITLE4=Call The Devil My Friend
TTITLE5=Ready For The Ride
EXTD=
EXTT0=
EXTT1=
EXTT2=
EXTT3=
EXTT4=
EXTT5=
PLAYORDER=
